<?xml version="1.0" encoding="utf-8"?>
<?xml-stylesheet type="text/xsl" href="rss1.xsl"?>
<rss version="2.0" xmlns:atom="http://www.w3.org/2005/Atom" xmlns:content="http://purl.org/rss/1.0/modules/content/" xmlns:dc="http://purl.org/dc/elements/1.1/" xmlns:media="http://search.yahoo.com/mrss/">
<channel>
 <title>Getty</title>
 <link>http://www.gettyimg.com/</link>
 <atom:link href="http://www.gettyimg.com/" rel="self" type="application/rss+xml" />

 
                <item>
                <title><![CDATA[【HD Live Performances】WEB-DL - Miranda! En Vivo Movistar Arena, Buenos Aires 2024 FLOW.WEB-DL.1080p-Tknobi]]></title>
                <link><![CDATA[https://sharemania.us/threads/miranda-en-vivo-movistar-arena-buenos-aires-2024-flow-web-dl-1080p-tknobi.247611/]]></link>
                <description><![CDATA[<article>
<blockquote class="messageText SelectQuoteContainer ugc baseHtml">
<div style="text-align: center"><img src="https://i.postimg.cc/jSPcyLxH/Miranda-En-Vivo-Movistar-Arena-Buenos-Aires-2024-FLOW-WEB-DL-1080p-Tknobi-mkv.jpg" class="bbCodeImage LbImage" alt="[​IMG]" data-url="https://i.postimg.cc/jSPcyLxH/Miranda-En-Vivo-Movistar-Arena-Buenos-Aires-2024-FLOW-WEB-DL-1080p-Tknobi-mkv.jpg" style=""> <br>
<br>
​</div>
<div class="ToggleTriggerAnchor bbCodeSpoilerContainer">
<button type="button" class="button bbCodeSpoilerButton ToggleTrigger Tooltip JsOnly" data-target="> .SpoilerTarget"><span>Spoiler: <span class="SpoilerTitle">MediaInfo</span></span></button>
<div class="SpoilerTarget bbCodeSpoilerText">Format : Matroska<br>
Format version : Version 4<br>
File size : 4.73 GiB<br>
Duration : 2 h 10 min<br>
Overall bit rate mode : Variable<br>
Overall bit rate : 5 205 kb/s<br>
Movie name : Miranda En Vivo Movistar Arena, Buenos Aires 2024 FLOW.WEB-DL.1080p-Tknobi<br>
Encoded date : UTC 2024-06-22 08:26:33<br>
Writing application : mkvmerge v66.0.0 ('Josie') 64-bit<br>
Writing library : libebml v1.4.2 + libmatroska v1.6.4 / Lavf60.3.100<br>
<br>
Video<br>
ID : 1<br>
Format : AVC<br>
Format/Info : Advanced Video Codec<br>
Format profile : High@L4.1<br>
Format settings : CABAC / 4 Ref Frames<br>
Format settings, CABAC : Yes<br>
Format settings, Reference frames : 4 frames<br>
Codec ID : V_MPEG4/ISO/AVC<br>
Duration : 2 h 10 min<br>
Bit rate mode : Variable<br>
Bit rate : 4 949 kb/s<br>
Maximum bit rate : 5 000 kb/s<br>
Width : 1 920 pixels<br>
Height : 1 080 pixels<br>
Display aspect ratio : 16:9<br>
Frame rate mode : Constant<br>
Frame rate : 29.970 (30000/1001) FPS<br>
Standard : Component<br>
Color space : YUV<br>
Chroma subsampling : 4:2:0<br>
Bit depth : 8 bits<br>
Scan type : Progressive<br>
Bits/(Pixel*Frame) : 0.080<br>
Stream size : 4.50 GiB (95%)<br>
Default : Yes<br>
Forced : No<br>
Color range : Limited<br>
Color primaries : BT.709<br>
Transfer characteristics : BT.709<br>
Matrix coefficients : BT.709<br>
VENDOR_ID : [0][0][0][0]<br>
<br>
Audio<br>
ID : 2<br>
Format : AAC LC<br>
Format/Info : Advanced Audio Codec Low Complexity<br>
Codec ID : A_AAC-2<br>
Duration : 2 h 10 min<br>
Bit rate : 253 kb/s<br>
Channel(s) : 2 channels<br>
Channel layout : L R<br>
Sampling rate : 48.0 kHz<br>
Frame rate : 46.875 FPS (1024 SPF)<br>
Compression mode : Lossy<br>
Delay relative to video : 10 ms<br>
Stream size : 236 MiB (5%)<br>
Language : Spanish<br>
Default : Yes<br>
Forced : No<br>
VENDOR_ID : [0][0][0][0]</div>
</div><br>
<div style="text-align: center"><br>
<div class="bbCodeBlock bbCodeVfcHH HiddenContent">
<div class="attribution type">Hidden Content:</div>
<blockquote>You must reply before you can see the hidden data contained here.</blockquote>
</div></div>
<div class="messageTextEndMarker">&nbsp;</div>
</blockquote>
</article>]]></description>
                <author><![CDATA[tknobi]]></author>
                </item>

                </channel></rss>